<?xml version="1.0" encoding="UTF-8"?>
<svg id="Layer_1" data-name="Layer 1" xmlns="http://www.w3.org/2000/svg" xmlns:xlink="http://www.w3.org/1999/xlink" viewBox="0 0 394.12 394.12">
  <defs>
    <style>
      .cls-1 {
        fill: url(#linear-gradient);
      }
    </style>
    <linearGradient id="linear-gradient" x1="197.06" y1="53.7" x2="197.06" y2="337.18" gradientUnits="userSpaceOnUse">
      <stop offset="0" stop-color="#cb3154"/>
      <stop offset="1" stop-color="#5c8acf"/>
    </linearGradient>
  </defs>
  <path class="cls-1" d="M173.26,70.83c-7.59-3.42-15.29-6.55-23.11-9.31-5.46-1.94-10.99-3.7-16.58-5.3h41.22c-.23,4.91-.74,9.8-1.53,14.61ZM92.52,59.29c-11.95-1.74-24.09-2.76-36.22-2.99v36.67c17.99-2.46,32.48-16.09,36.22-33.67ZM143.24,133.33c3.99-4.44,7.67-9.21,10.95-14.18,1.43-2.11,2.8-4.32,4.07-6.55,3.83-6.59,7.04-13.57,9.58-20.73,1.08-3.07,2.03-6.18,2.87-9.33-8.02-3.7-16.19-7.02-24.48-9.95-13.63-4.83-27.79-8.62-42.14-11.36-4.67,23.13-23.97,41.03-47.79,43.57v21.31c10.19.27,20.4,1.21,30.41,2.87,12.36,2.09,24.58,5.24,36.29,9.39,3.7,1.31,7.35,2.74,10.99,4.24,3.25-2.93,6.36-6.04,9.25-9.29ZM71.2,173.14c7.08-1.19,14.06-3.01,20.77-5.38,7.2-2.54,14.18-5.77,20.77-9.6,2.21-1.27,4.4-2.64,6.55-4.07,1.43-.96,2.86-1.96,4.26-2.97-1.49-.57-2.97-1.15-4.46-1.7-11.09-3.91-22.63-6.88-34.34-8.86-9.35-1.56-18.91-2.46-28.45-2.72v36.86c5.01-.23,9.99-.74,14.9-1.56ZM173.24,323.25c-7.57,3.4-15.27,6.53-23.07,9.29-5.44,1.92-10.95,3.68-16.52,5.28h41.14c-.23-4.89-.74-9.78-1.54-14.57ZM92.52,334.76c-3.73-17.58-18.23-31.21-36.22-33.67v36.67c12.12-.23,24.25-1.25,36.22-2.99ZM170.72,311.51c-.84-3.17-1.8-6.3-2.89-9.37-2.54-7.18-5.77-14.16-9.6-20.77-1.29-2.25-2.66-4.44-4.05-6.53-3.3-4.97-7-9.74-10.97-14.18-2.89-3.23-6-6.32-9.21-9.23-3.62,1.51-7.27,2.93-10.97,4.24-11.71,4.15-23.94,7.29-36.29,9.39-10.01,1.66-20.22,2.6-30.43,2.87v21.31c23.82,2.54,43.12,20.43,47.79,43.57,14.35-2.74,28.51-6.53,42.16-11.36,8.29-2.93,16.47-6.26,24.46-9.95ZM84.77,253.49c11.69-1.98,23.25-4.95,34.34-8.88,1.49-.53,2.95-1.11,4.44-1.68-1.43-1.04-2.87-2.05-4.32-3.01-2.15-1.43-4.36-2.82-6.57-4.09-6.59-3.81-13.55-7.02-20.73-9.56-6.71-2.37-13.69-4.17-20.75-5.36-4.89-.82-9.89-1.33-14.88-1.56v36.86c9.56-.25,19.11-1.15,28.47-2.72ZM153.45,228.78c3.62-2.09,7.27-4.38,10.87-6.77,8.17-5.44,16.05-11.54,23.43-18.13,2.48-2.23,4.91-4.52,7.27-6.84-2.39-2.37-4.81-4.65-7.29-6.88-7.39-6.61-15.27-12.71-23.43-18.13-3.62-2.39-7.27-4.67-10.89-6.77-5.63-3.25-11.44-6.24-17.36-8.96-3.32,2.68-6.75,5.22-10.27,7.57-2.35,1.56-4.75,3.05-7.16,4.46-7.22,4.17-14.86,7.7-22.72,10.5-7.35,2.6-15,4.58-22.74,5.87-5.55.94-11.2,1.53-16.86,1.76v21.14c5.65.23,11.28.82,16.82,1.74,7.74,1.31,15.37,3.29,22.72,5.87,7.86,2.8,15.49,6.32,22.68,10.48,2.42,1.39,4.83,2.89,7.2,4.46,3.54,2.35,6.98,4.91,10.32,7.61,5.94-2.72,11.75-5.71,17.4-8.98ZM253.55,309.34c-1.84-10.91-4.6-21.71-8.13-32.11-9.43,8.1-19.32,15.66-29.57,22.45-5.22,3.48-10.56,6.79-15.82,9.84-5.18,2.99-10.46,5.83-15.82,8.51.2.98.39,1.96.57,2.93.92,5.55,1.51,11.2,1.76,16.86h69.75c-.27-9.56-1.17-19.11-2.74-28.47ZM209.36,289.91c11.03-7.31,21.67-15.53,31.68-24.4-3.52-8.53-7.61-16.86-12.22-24.82-2.15-3.75-4.42-7.41-6.73-10.85-5.48-8.23-11.58-16.13-18.15-23.47-.25-.29-.53-.57-.8-.86-2.46,2.42-4.99,4.81-7.57,7.12-7.78,6.98-16.11,13.41-24.76,19.16-3.79,2.52-7.67,4.93-11.5,7.14-4.48,2.6-9.07,5.03-13.75,7.31,2.19,2.13,4.34,4.32,6.37,6.61,4.34,4.85,8.39,10.07,11.99,15.51,1.54,2.29,3.03,4.69,4.46,7.16,4.18,7.22,7.7,14.86,10.5,22.72.94,2.64,1.76,5.34,2.54,8.06,4.3-2.21,8.55-4.52,12.71-6.92,5.06-2.93,10.19-6.12,15.21-9.46ZM211.29,197.04c.45.49.94,1,1.39,1.51,6.94,7.76,13.4,16.09,19.16,24.78,2.44,3.66,4.85,7.53,7.14,11.5,4.15,7.16,7.9,14.59,11.2,22.19,5.01-4.83,9.88-9.86,14.49-15.02,9.17-10.25,17.7-21.26,25.3-32.72,2.62-3.93,5.18-8.06,7.67-12.24-2.48-4.2-5.05-8.33-7.67-12.24-7.61-11.48-16.13-22.49-25.3-32.73-4.61-5.16-9.48-10.19-14.49-15.02-3.3,7.61-7.04,15.02-11.2,22.18-2.27,3.95-4.67,7.84-7.14,11.52-5.75,8.66-12.18,16.99-19.14,24.76-.45.51-.94,1.02-1.41,1.54ZM222.09,164.23c2.33-3.48,4.6-7.12,6.75-10.87,4.61-7.96,8.68-16.27,12.2-24.8-10.01-8.88-20.65-17.09-31.66-24.4-5.05-3.34-10.17-6.53-15.23-9.45-4.17-2.42-8.41-4.73-12.71-6.94-.78,2.7-1.6,5.38-2.52,8.02-2.78,7.84-6.3,15.47-10.48,22.68-1.41,2.44-2.91,4.87-4.46,7.2-3.6,5.42-7.63,10.64-11.99,15.49-2.03,2.31-4.2,4.52-6.43,6.67,4.67,2.27,9.25,4.71,13.73,7.29,3.83,2.21,7.7,4.61,11.52,7.14,8.62,5.73,16.95,12.18,24.76,19.16,2.58,2.31,5.1,4.71,7.59,7.14l.82-.88c6.57-7.35,12.67-15.23,18.13-23.45ZM253.57,84.7c1.56-9.35,2.44-18.91,2.72-28.47h-69.75c-.25,5.65-.84,11.3-1.76,16.84-.18,1-.37,1.98-.57,2.97,5.36,2.68,10.64,5.51,15.82,8.51,5.26,3.05,10.6,6.36,15.82,9.84,10.25,6.79,20.14,14.35,29.57,22.47,3.54-10.42,6.3-21.22,8.15-32.15ZM333.92,295.77c-2.76-16.31-6.92-32.44-12.38-47.89-4.75-13.43-10.56-26.54-17.27-39.11-1.51,2.39-3.01,4.73-4.54,7.02-7.9,11.91-16.76,23.37-26.32,34.03-5.87,6.57-12.08,12.91-18.54,18.95.29.78.59,1.54.86,2.33,4.15,11.73,7.29,23.95,9.39,36.31,1.68,10.01,2.62,20.2,2.89,30.41h69.79c-.27-14.1-1.58-28.22-3.89-42.04ZM321.55,146.18c5.46-15.45,9.62-31.56,12.38-47.91,2.31-13.83,3.62-27.94,3.89-42.04h-69.79c-.27,10.21-1.21,20.42-2.89,30.41-2.07,12.38-5.24,24.58-9.37,36.29-.29.8-.59,1.58-.88,2.37,6.45,6.04,12.67,12.38,18.54,18.95,9.56,10.66,18.42,22.12,26.32,34.05,1.54,2.27,3.05,4.61,4.54,7,6.71-12.59,12.52-25.7,17.27-39.11Z"/>
</svg>